<svg width="20" height="20" viewBox="0 0 20 20" fill="none" xmlns="http://www.w3.org/2000/svg">
<path d="M15.968 17.6385C14.228 19.3756 9.7717 17.7434 6.01471 13.9929C2.25771 10.2423 0.622683 5.79374 2.36276 4.05665L3.50847 2.91291C4.29942 2.12332 5.6027 2.14419 6.41944 2.95953L8.19404 4.73108C9.01078 5.54641 9.03169 6.84745 8.24074 7.63704L7.99466 7.8827C7.56761 8.30901 7.52583 8.99673 7.92264 9.47676C8.30538 9.93978 8.71801 10.401 9.1654 10.8476C9.6128 11.2942 10.0748 11.7061 10.5386 12.0882C11.0194 12.4843 11.7083 12.4426 12.1354 12.0163L12.3815 11.7707C13.1724 10.9811 14.4757 11.0019 15.2925 11.8173L17.0671 13.5888C17.8838 14.4042 17.9047 15.7052 17.1138 16.4948L15.968 17.6385Z" stroke="white" stroke-width="1.6"/>
<path d="M14.6898 7.66701C14.4726 7.13799 14.1488 6.64234 13.7185 6.21279C13.3125 5.80749 12.8476 5.49687 12.3513 5.28092" stroke="white" stroke-width="1.6" stroke-linecap="round"/>
<path d="M12.3511 2.25626C13.5394 2.68602 14.6544 3.37642 15.6071 4.32748C16.5837 5.30241 17.2859 6.44754 17.7138 7.66731" stroke="white" stroke-width="1.6" stroke-linecap="round"/>
</svg>
