<svg width="20" height="20" viewBox="0 0 20 20" fill="none" xmlns="http://www.w3.org/2000/svg">
<path d="M14.3334 17.9167H4.16675C2.75008 17.9167 1.66675 16.75 1.66675 15.4167V14.8333C1.66675 12.4167 3.66675 10.4167 6.08341 10.4167H12.3334C14.7501 10.4167 16.7501 12.4167 16.7501 14.8333V15.4167C16.8334 16.75 15.6667 17.9167 14.3334 17.9167ZM6.08341 11.1667C4.08341 11.1667 2.41675 12.8333 2.41675 14.8333V15.4167C2.41675 16.3333 3.16675 17.1667 4.16675 17.1667H14.2501C15.1667 17.1667 16.0001 16.4167 16.0001 15.4167V14.8333C16.0001 12.8333 14.3334 11.1667 12.3334 11.1667H6.08341ZM9.25008 9.25C7.25008 9.25 5.66675 7.66666 5.66675 5.66666C5.66675 3.66666 7.25008 2.08333 9.25008 2.08333C11.2501 2.08333 12.8334 3.66666 12.8334 5.66666C12.8334 7.66666 11.2501 9.25 9.25008 9.25ZM9.25008 2.91666C7.66675 2.91666 6.41675 4.16666 6.41675 5.66666C6.41675 7.16666 7.66675 8.49999 9.25008 8.49999C10.8334 8.49999 12.0834 7.24999 12.0834 5.66666C12.0834 4.08333 10.7501 2.91666 9.25008 2.91666ZM17.9167 7.74999H16.5834V6.33333C16.5834 6.08333 16.4167 5.91666 16.1667 5.91666C15.9167 5.91666 15.7501 6.08333 15.7501 6.33333V7.66666H14.4167C14.1667 7.66666 14.0001 7.83333 14.0001 8.08333C14.0001 8.33333 14.1667 8.49999 14.4167 8.49999H15.7501V9.83333C15.7501 10.0833 15.9167 10.25 16.1667 10.25C16.4167 10.25 16.5834 10.0833 16.5834 9.83333V8.49999H17.9167C18.1667 8.49999 18.3334 8.33333 18.3334 8.08333C18.3334 7.91666 18.1667 7.74999 17.9167 7.74999Z" fill="#666666"/>
</svg>
