<svg width="20" height="20" viewBox="0 0 20 20" fill="none" xmlns="http://www.w3.org/2000/svg">
<path d="M18.1667 1.75001C18.0001 1.66667 17.8334 1.66667 17.7501 1.66667L6.41675 6.08334H3.41675C2.41675 6.08334 1.66675 6.83334 1.66675 7.83334V10.5C1.66675 11.5 2.41675 12.25 3.41675 12.25H4.33341L5.16675 18C5.16675 18.25 5.41675 18.4167 5.58341 18.4167H8.25008C8.41675 18.4167 8.50008 18.3333 8.58341 18.25C8.66675 18.1667 8.66675 18 8.66675 17.9167L8.08341 12.9167L17.6667 16.5833C17.7501 16.5833 17.7501 16.5833 17.8334 16.5833C17.9167 16.5833 18.0001 16.5833 18.0834 16.5C18.1667 16.4167 18.2501 16.25 18.2501 16.1667V2.08334C18.3334 2.00001 18.2501 1.83334 18.1667 1.75001ZM2.58341 10.4167V7.83334C2.58341 7.33334 3.00008 6.91667 3.50008 6.91667H6.16675V11.3333H3.41675C2.91675 11.3333 2.58341 10.9167 2.58341 10.4167ZM7.75008 17.4167H6.00008L5.25008 12.1667H6.41675L7.16675 12.5L7.75008 17.4167ZM17.4167 15.5L6.91675 11.4167V6.83334L17.4167 2.75001V15.5Z" fill="#666666"/>
</svg>
