<svg width="28" height="28" viewBox="0 0 28 28" fill="none" xmlns="http://www.w3.org/2000/svg">
<path d="M25.8945 5.43594C25.8945 5.17344 25.7195 4.93828 25.4625 4.87266C21.6234 3.81719 17.7625 2.18203 14.3008 0.136719C14.1148 0.0273438 13.8906 0.0273438 13.7047 0.136719C10.1391 2.24219 6.48594 3.78984 2.5375 4.87266C2.28047 4.94375 2.10547 5.17344 2.10547 5.43594V11.4297C2.10547 17.6039 4.95469 21.6891 7.34453 24.0297C9.91484 26.5508 12.9117 27.9453 14 27.9453C15.0883 27.9453 18.0852 26.5508 20.6555 24.0297C23.0453 21.6891 25.8945 17.6039 25.8945 11.4297V5.43594ZM24.7188 11.4297C24.7188 17.1938 22.0609 21.0109 19.8352 23.193C17.3086 25.6703 14.6016 26.7695 14 26.7695C13.3984 26.7695 10.6969 25.6703 8.16484 23.193C5.93906 21.0109 3.28125 17.1992 3.28125 11.4297V5.88438C7.05469 4.8125 10.5711 3.31406 14 1.32344C17.3469 3.26484 21.0328 4.83437 24.7188 5.88438V11.4297Z" fill="#C21E13"/>
<path d="M9.91485 5.92813C9.99141 5.92813 10.0734 5.91172 10.15 5.87891L10.1609 5.87344C10.4563 5.74219 10.593 5.39766 10.4617 5.10235C10.3305 4.80703 9.98594 4.67031 9.68516 4.80156L9.67422 4.80703C9.37891 4.93828 9.24219 5.28281 9.37344 5.57813C9.47188 5.79688 9.69063 5.92813 9.91485 5.92813Z" fill="#C21E13"/>
<path d="M8.79922 5.81875C8.67891 5.51797 8.33984 5.37031 8.03906 5.49062C6.98906 5.90625 5.92266 6.28359 4.83984 6.62266C4.59375 6.69922 4.42969 6.92344 4.42969 7.18047V9.44453C4.42969 9.76719 4.69219 10.0297 5.01484 10.0297C5.3375 10.0297 5.6 9.76719 5.6 9.44453V7.60156C6.56797 7.28984 7.51953 6.94531 8.46563 6.57344C8.77188 6.45859 8.91953 6.11953 8.79922 5.81875Z" fill="#C21E13"/>
<path d="M20.989 18.9711C20.7156 18.7961 20.3546 18.8727 20.1796 19.1406C19.6984 19.8789 19.1296 20.5898 18.4953 21.2461C17.9703 21.7875 17.4124 22.2852 16.8109 22.7445C16.5539 22.9414 16.5046 23.3078 16.7015 23.5648C16.8109 23.7125 16.9859 23.7945 17.1664 23.7945C17.2921 23.7945 17.4179 23.7563 17.5218 23.6742C18.1671 23.182 18.7742 22.6406 19.3374 22.0609C20.0265 21.35 20.639 20.5844 21.164 19.7805C21.339 19.5125 21.2624 19.1516 20.989 18.9711Z" fill="#C21E13"/>
<path d="M15.4492 23.6633L15.4164 23.6852C15.1375 23.8492 15.0391 24.2047 15.2031 24.4891C15.3672 24.768 15.7227 24.8664 16.0016 24.7023L16.0399 24.6805C16.3188 24.5164 16.4117 24.1555 16.2477 23.8766C16.0836 23.5977 15.7281 23.5047 15.4492 23.6633Z" fill="#C21E13"/>
<path d="M20.6992 11.7305C21.4429 10.9867 21.4429 9.77812 20.6992 9.03437C20.3382 8.67344 19.8625 8.47656 19.3484 8.47656C18.8398 8.47656 18.3585 8.67344 17.9976 9.03437L12.1187 14.9187L10.0023 12.8023C9.64136 12.4414 9.16558 12.2445 8.65151 12.2445C8.13745 12.2445 7.66167 12.4414 7.30073 12.8023C6.55698 13.5461 6.55698 14.7547 7.30073 15.4984L10.7625 18.9602C11.1234 19.3211 11.5992 19.518 12.1132 19.518C12.6218 19.518 13.1031 19.3211 13.464 18.9602L20.6992 11.7305ZM12.6382 18.1344C12.5015 18.2711 12.3156 18.3477 12.1187 18.3477C11.9218 18.3477 11.7359 18.2711 11.5992 18.1344L8.13745 14.6727C7.85308 14.3883 7.85308 13.918 8.13745 13.6336C8.27417 13.4969 8.46011 13.4203 8.65698 13.4203C8.85386 13.4203 9.0398 13.4969 9.17651 13.6336L11.7085 16.1656C11.8179 16.275 11.9656 16.3352 12.1242 16.3352C12.2828 16.3352 12.4304 16.275 12.5398 16.1656L18.8398 9.86562C18.9765 9.72891 19.1625 9.65234 19.3593 9.65234C19.5562 9.65234 19.7421 9.72891 19.8789 9.86562C20.1632 10.15 20.1632 10.6203 19.8789 10.9047L12.6382 18.1344Z" fill="#C21E13"/>
</svg>
