<svg width="16" height="16" viewBox="0 0 16 16" fill="none" xmlns="http://www.w3.org/2000/svg">
<path d="M4.27622 6.69719L6.88081 2.53396C6.98175 2.36941 7.12359 2.23381 7.29251 2.14036C7.46143 2.04692 7.65167 1.99881 7.84471 2.00074C7.99674 1.99525 8.14832 2.0203 8.29051 2.07439C8.4327 2.12849 8.56259 2.21054 8.67253 2.3157C8.78246 2.42085 8.8702 2.54698 8.93056 2.68662C8.99092 2.82626 9.02268 2.97659 9.02395 3.12871V6.1127H13.5256C13.6919 6.11809 13.8552 6.15864 14.0048 6.23166C14.1543 6.30468 14.2867 6.40854 14.3933 6.53639C14.4998 6.66424 14.5781 6.8132 14.6229 6.97346C14.6678 7.13373 14.6782 7.30168 14.6535 7.46626L13.8332 12.7575C13.7982 13.0402 13.6611 13.3005 13.4478 13.4893C13.2344 13.6781 12.9594 13.7825 12.6745 13.7829H5.94767C5.62745 13.7841 5.31138 13.7104 5.02479 13.5675L4.28648 13.1984M4.27622 6.69719V13.1676H1.84596C1.70999 13.1676 1.57957 13.1136 1.48342 13.0175C1.38727 12.9213 1.33325 12.7909 1.33325 12.6549V7.20991C1.33325 7.07393 1.38727 6.94352 1.48342 6.84736C1.57957 6.75121 1.70999 6.69719 1.84596 6.69719H4.27622Z" stroke="#666666" stroke-linecap="round" stroke-linejoin="round"/>
</svg>
