<svg width="20" height="20" viewBox="0 0 20 20" fill="none" xmlns="http://www.w3.org/2000/svg">
<path d="M8.74998 11.25C8.74998 11.5 8.58332 11.6667 8.33332 11.6667C8.08332 11.6667 7.91665 11.5 7.91665 11.25C7.91665 11 8.08332 10.8333 8.33332 10.8333C8.58332 10.8333 8.74998 11 8.74998 11.25ZM12.0833 17.9167C13.8333 18.75 15.9166 18.4167 17.25 17.0833L18 16.3333C18.4167 15.9167 18.4167 15.25 18 14.8333L15 11.6667C14.5833 11.25 13.9167 11.25 13.5 11.6667L12.25 12.9167C12 13.1667 11.5833 13.25 11.3333 13C10.8333 12.6667 10.4166 12.4167 9.99998 12C9.83332 11.8333 9.58332 11.9167 9.49998 12.0833C9.33332 12.25 9.41665 12.5 9.58332 12.5833C9.99998 12.9167 10.5 13.3333 11 13.5833C11.5833 13.9167 12.3333 13.8333 12.8333 13.3333L14.0833 12.0833C14.25 11.9167 14.4166 11.9167 14.5833 12.0833L17.5833 15.0833C17.75 15.25 17.75 15.4167 17.5833 15.5833L16.6666 16.5C15.5 17.6667 13.8333 17.9167 12.3333 17.25C7.08332 14.6667 4.24998 10.5833 2.74998 7.58333C2.08332 6.16667 2.41665 4.41667 3.49998 3.25L4.33332 2.5C4.49998 2.33333 4.66665 2.33333 4.83332 2.5L7.83332 5.5C7.99998 5.66667 7.99998 5.83333 7.83332 6L6.49998 7.33333C5.99998 7.83333 5.91665 8.58333 6.24998 9.16667C6.49998 9.5 6.66665 9.83333 6.91665 10.1667C7.08332 10.3333 7.24998 10.3333 7.41665 10.25C7.58332 10.0833 7.58332 9.91667 7.49998 9.75C7.24998 9.41667 7.08332 9.08333 6.83332 8.83333C6.66665 8.58333 6.66665 8.16667 6.91665 7.91667L8.33332 6.58333C8.74998 6.16667 8.74998 5.5 8.33332 5.08333L5.33332 2C4.91665 1.58333 4.16665 1.58333 3.74998 2L2.99998 2.75C1.66665 4.08333 1.24998 6.16667 2.16665 7.91667C3.66665 11 6.58332 15.25 12.0833 17.9167ZM13.8333 9.75L14.3333 7.41667H12.3333L11.8333 9.75H11.25L11.6666 7.41667H10.6666V6.83333H11.75L12.25 4.58333H10.6666V4.08333H12.4166C12.5 3.66667 12.5833 3.33333 12.6666 2.91667C12.75 2.5 12.8333 2.08333 12.9166 1.75H13.5L13 4.08333H15.0833C15.1666 3.75 15.25 3.33333 15.3333 2.91667C15.4166 2.5 15.5 2.08333 15.5833 1.75H16.1666L15.6666 4.08333H16.6666V4.66667H15.5833L15.0833 6.91667H16.6666V7.5H14.9166L14.4166 9.83333H13.8333V9.75ZM14.9166 4.66667H12.8333L12.3333 6.91667H14.4166L14.9166 4.66667Z" fill="#666666"/>
</svg>
