<svg width="300" height="44" viewBox="0 0 300 44" fill="none" xmlns="http://www.w3.org/2000/svg">
<rect x="0.5" y="0.5" width="299" height="43" rx="4.5" fill="#F5F5F5"/>
<rect x="0.5" y="0.5" width="299" height="43" rx="4.5" stroke="#888888"/>
<circle cx="23" cy="22" r="3" fill="#111111"/>
<circle cx="33" cy="22" r="3" fill="#111111"/>
<circle cx="43" cy="22" r="3" fill="#111111"/>
<circle cx="53" cy="22" r="3" fill="#111111"/>
<circle cx="63" cy="22" r="3" fill="#111111"/>
<circle cx="73" cy="22" r="3" fill="#111111"/>
<circle cx="83" cy="22" r="3" fill="#111111"/>
<circle cx="93" cy="22" r="3" fill="#111111"/>
<g clip-path="url(#clip0_11_4081)">
<path d="M278.942 21.7911C277.444 19.0222 274.818 17.3467 271.911 17.3467C269.004 17.3467 266.373 19.0222 264.889 21.7911L264.764 22L264.88 22.2133C266.378 24.9822 269.004 26.6578 271.911 26.6578C274.818 26.6578 277.449 25.0044 278.942 22.2133L279.058 22L278.942 21.7911Z" fill="#888888"/>
<path d="M272.04 18.9644C271.437 18.9688 270.85 19.1517 270.351 19.49C269.852 19.8283 269.465 20.3067 269.238 20.865C269.011 21.4233 268.954 22.0363 269.076 22.6266C269.197 23.2169 269.49 23.758 269.919 24.1817C270.348 24.6053 270.892 24.8924 271.484 25.0068C272.075 25.1211 272.688 25.0575 273.243 24.8241C273.799 24.5906 274.273 24.1978 274.605 23.6952C274.938 23.1925 275.114 22.6026 275.111 22C275.109 21.5989 275.028 21.202 274.873 20.8322C274.718 20.4624 274.491 20.1268 274.206 19.8448C273.92 19.5629 273.582 19.3399 273.211 19.1889C272.839 19.0378 272.441 18.9615 272.04 18.9644ZM272.04 24.1733C271.614 24.1689 271.199 24.0389 270.847 23.7995C270.495 23.5601 270.222 23.222 270.062 22.8277C269.901 22.4334 269.861 22.0005 269.946 21.5834C270.03 21.1662 270.236 20.7834 270.538 20.483C270.84 20.1826 271.223 19.978 271.641 19.895C272.058 19.8119 272.491 19.8541 272.885 20.0161C273.278 20.1782 273.615 20.453 273.853 20.806C274.091 21.1589 274.22 21.5743 274.222 22C274.223 22.2865 274.168 22.5704 274.058 22.8352C273.949 23.1 273.788 23.3404 273.585 23.5426C273.382 23.7447 273.141 23.9046 272.876 24.0129C272.611 24.1211 272.326 24.1757 272.04 24.1733Z" fill="white"/>
</g>
<defs>
<clipPath id="clip0_11_4081">
<rect width="16" height="16" fill="white" transform="translate(264 14)"/>
</clipPath>
</defs>
</svg>
