<svg width="20" height="20" viewBox="0 0 20 20" fill="none" xmlns="http://www.w3.org/2000/svg">
<g clip-path="url(#clip0_54_4265)">
<path fill-rule="evenodd" clip-rule="evenodd" d="M10 0C4.477 0 0 4.477 0 10C0 15.523 4.477 20 10 20C15.523 20 20 15.523 20 10C20 4.477 15.523 0 10 0ZM6.5 7.5C6.5 7.04037 6.59053 6.58525 6.76642 6.16061C6.94231 5.73597 7.20012 5.35013 7.52513 5.02513C7.85013 4.70012 8.23597 4.44231 8.66061 4.26642C9.08525 4.09053 9.54037 4 10 4C10.4596 4 10.9148 4.09053 11.3394 4.26642C11.764 4.44231 12.1499 4.70012 12.4749 5.02513C12.7999 5.35013 13.0577 5.73597 13.2336 6.16061C13.4095 6.58525 13.5 7.04037 13.5 7.5C13.5 8.42826 13.1313 9.3185 12.4749 9.97487C11.8185 10.6313 10.9283 11 10 11C9.07174 11 8.1815 10.6313 7.52513 9.97487C6.86875 9.3185 6.5 8.42826 6.5 7.5ZM16.258 14.984C15.5094 15.9256 14.5578 16.686 13.4742 17.2082C12.3905 17.7305 11.2029 18.0011 10 18C8.79709 18.0011 7.60946 17.7305 6.52583 17.2082C5.4422 16.686 4.49056 15.9256 3.742 14.984C5.363 13.821 7.575 13 10 13C12.425 13 14.637 13.821 16.258 14.984Z" fill="white"/>
</g>
<defs>
<clipPath id="clip0_54_4265">
<rect width="20" height="20" fill="white"/>
</clipPath>
</defs>
</svg>
