<svg width="20" height="20" viewBox="0 0 20 20" fill="none" xmlns="http://www.w3.org/2000/svg">
<path d="M9.07445 11.5625C9.07445 11.8125 8.90778 11.9792 8.65778 11.9792C8.40778 11.9792 8.24111 11.8125 8.24111 11.5625C8.24111 11.3125 8.40778 11.1458 8.65778 11.1458C8.90778 11.1458 9.07445 11.3125 9.07445 11.5625ZM12.4078 18.2292C14.1578 19.0625 16.2411 18.7292 17.5744 17.3958L18.3244 16.6458C18.7411 16.2292 18.7411 15.5625 18.3244 15.1458L15.3244 11.9792C14.9078 11.5625 14.2411 11.5625 13.8244 11.9792L12.5744 13.2292C12.3244 13.4792 11.9078 13.5625 11.6578 13.3125C11.1578 12.9792 10.7411 12.7292 10.3244 12.3125C10.1578 12.1458 9.90778 12.2292 9.82445 12.3958C9.65778 12.5625 9.74111 12.8125 9.90778 12.8958C10.3244 13.2292 10.8244 13.6458 11.3244 13.8958C11.9078 14.2292 12.6578 14.1458 13.1578 13.6458L14.4078 12.3958C14.5744 12.2292 14.7411 12.2292 14.9078 12.3958L17.9078 15.3958C18.0744 15.5625 18.0744 15.7292 17.9078 15.8958L16.9911 16.8125C15.8244 17.9792 14.1578 18.2292 12.6578 17.5625C7.40778 14.9792 4.57445 10.8958 3.07445 7.89583C2.40778 6.47917 2.74111 4.72917 3.82445 3.5625L4.65778 2.8125C4.82445 2.64583 4.99111 2.64583 5.15778 2.8125L8.15778 5.8125C8.32445 5.97917 8.32445 6.14583 8.15778 6.3125L6.82445 7.64583C6.32445 8.14583 6.24111 8.89583 6.57445 9.47917C6.82445 9.8125 6.99111 10.1458 7.24111 10.4792C7.40778 10.6458 7.57445 10.6458 7.74111 10.5625C7.90778 10.3958 7.90778 10.2292 7.82445 10.0625C7.57445 9.72917 7.40778 9.39583 7.15778 9.14583C6.99111 8.89583 6.99111 8.47917 7.24111 8.22917L8.65778 6.89583C9.07445 6.47917 9.07445 5.8125 8.65778 5.39583L5.65778 2.3125C5.24111 1.89583 4.49111 1.89583 4.07445 2.3125L3.32445 3.0625C1.99111 4.39583 1.57445 6.47917 2.49111 8.22917C3.99111 11.3125 6.90778 15.5625 12.4078 18.2292Z" fill="#666666"/>
</svg>
