<svg width="28" height="28" viewBox="0 0 28 28" fill="none" xmlns="http://www.w3.org/2000/svg">
<path d="M18.3914 20.6828C18.7523 20.6828 19.0477 20.3875 19.0477 20.0266C19.0477 19.6656 18.7523 19.3703 18.3914 19.3703H1.96875C1.63516 19.3703 1.36172 19.1023 1.36172 18.7633V5.99375L10.2867 14.9297C11.1945 15.8375 12.6602 15.8375 13.568 14.9352C13.568 14.9352 13.568 14.9352 13.5734 14.9297L22.5094 5.99375V15.1594C22.5094 15.5203 22.8047 15.8156 23.1656 15.8156C23.5266 15.8156 23.8219 15.5203 23.8219 15.1594V5.1625C23.8219 4.11797 22.9742 3.26484 21.9242 3.26484C21.9187 3.26484 21.9133 3.26484 21.9078 3.26484H1.96875C0.91875 3.26484 0.065625 4.1125 0.0546875 5.1625V18.7742C0.0546875 19.8187 0.902344 20.6883 1.96875 20.6883H18.3914V20.6828ZM1.80469 4.58828C1.85937 4.57734 1.91406 4.57187 1.96875 4.57187H22.0664L22.0172 4.62109L12.6547 14C12.2609 14.3992 11.6211 14.3992 11.2219 14.0055L11.2164 14L1.85391 4.62109L1.80469 4.58828Z" fill="#8314DA"/>
<path d="M26.4469 15.9961C28.443 17.9813 28.4484 21.2133 26.4578 23.2039C26.4523 23.2094 26.4469 23.2148 26.4469 23.2148C24.4672 25.2164 21.2406 25.2383 19.2391 23.2586C18.2656 22.2961 17.7187 20.9836 17.7242 19.6164C17.7078 16.8 19.9773 14.5031 22.7937 14.4867C24.1664 14.4813 25.4844 15.0281 26.4523 16.0016V15.9961H26.4469ZM25.5281 16.9258C24.057 15.4383 21.6562 15.4219 20.1687 16.893C20.1578 16.9039 20.1469 16.9148 20.1359 16.9258C18.6484 18.3969 18.632 20.7977 20.1031 22.2852C20.825 23.0125 21.8094 23.4172 22.832 23.4117C24.9266 23.4281 26.6383 21.7438 26.6547 19.6547C26.6656 18.632 26.2609 17.6477 25.5281 16.9258Z" fill="#8314DA"/>
<path d="M26.4468 16.9258C26.671 16.6414 26.6163 16.2312 26.332 16.007C26.1023 15.8266 25.7796 15.8211 25.5445 15.9906L19.239 22.3016C19.0202 22.5914 19.0804 23.0016 19.3702 23.2148C19.5999 23.3898 19.9226 23.3898 20.1523 23.2148L26.4468 16.9258Z" fill="#8314DA"/>
</svg>
