<svg width="28" height="28" viewBox="0 0 28 28" fill="none" xmlns="http://www.w3.org/2000/svg">
<g clip-path="url(#clip0_115_139)">
<path d="M4.7413 4.74141C4.73583 4.74687 4.73036 4.75234 4.72489 4.75781C4.47333 5.01484 4.48427 5.425 4.7413 5.67656C4.99833 5.92812 5.40849 5.91719 5.66005 5.66016C7.93505 3.38516 11.6374 3.38516 13.9179 5.66016C13.9233 5.66562 13.9288 5.67109 13.9343 5.67656C14.1913 5.92812 14.6015 5.91719 14.853 5.66016C15.1046 5.40312 15.0936 4.99297 14.8366 4.74141C12.0476 1.95781 7.51943 1.95781 4.7413 4.74141Z" fill="#1099D3"/>
<path d="M17.6258 18.5391L18.5445 17.6203L17.1008 16.1875C18.5992 14.4758 19.5125 12.2336 19.5125 9.78906C19.5125 4.41875 15.1484 0.0546875 9.78359 0.0546875C4.41875 0.0546875 0.0546875 4.41875 0.0546875 9.78359C0.0546875 15.1484 4.41875 19.5125 9.78359 19.5125C12.2336 19.5125 14.4703 18.5992 16.182 17.1008L17.6258 18.5391ZM9.78359 18.2164C5.13516 18.2164 1.35078 14.432 1.35078 9.78359C1.35078 5.13516 5.13516 1.35078 9.78359 1.35078C14.432 1.35078 18.2164 5.13516 18.2164 9.78359C18.2164 14.432 14.432 18.2164 9.78359 18.2164Z" fill="#1099D3"/>
<path d="M27.1851 23.5156L20.3765 16.707C20.125 16.4555 19.7148 16.4555 19.4578 16.707L18.539 17.6258L17.6257 18.5391L16.707 19.4578C16.4554 19.7094 16.4554 20.1195 16.707 20.3766L23.5156 27.1852C24.0078 27.6773 24.6585 27.9453 25.3476 27.9453C26.0367 27.9453 26.6929 27.6773 27.1796 27.1852C27.6664 26.6984 27.9398 26.0367 27.9398 25.3531C27.9453 24.6641 27.6718 24.0023 27.1851 23.5156ZM26.2664 26.2664C25.7742 26.7586 24.921 26.7586 24.4343 26.2664L18.0796 19.9172L19.9117 18.0852L26.2609 24.4344C26.507 24.675 26.6437 25.0086 26.6437 25.3531C26.6492 25.6977 26.5125 26.0258 26.2664 26.2664Z" fill="#1099D3"/>
</g>
<defs>
<clipPath id="clip0_115_139">
<rect width="28" height="28" fill="white"/>
</clipPath>
</defs>
</svg>
