<svg width="183" height="33" viewBox="0 0 183 33" fill="none" xmlns="http://www.w3.org/2000/svg">
<path d="M46.6721 24.4046C44.821 24.4557 42.9831 24.079 41.3013 23.3038C39.8199 22.5756 38.6261 21.3706 37.9119 19.8823C37.1384 18.3351 36.7516 16.3691 36.7516 13.9841C36.7516 10.4617 37.6169 7.84438 39.3475 6.1321C41.0781 4.41982 43.5242 3.56368 46.6858 3.56368C48.2754 3.53762 49.8534 3.83731 51.3227 4.44428C52.644 4.98614 53.7765 5.90493 54.5791 7.08608C55.4104 8.4104 55.8243 9.95406 55.767 11.5166H51.364C51.3913 10.6874 51.1932 9.86631 50.7907 9.14081C50.4124 8.497 49.8502 7.98108 49.1763 7.65939C48.42 7.30225 47.5908 7.12636 46.7546 7.1457C45.675 7.10235 44.6041 7.35618 43.6588 7.87954C42.8377 8.37845 42.2066 9.13706 41.8655 10.0352C41.4516 11.1464 41.2523 12.3262 41.2784 13.5117V14.429C41.2418 15.6347 41.4412 16.836 41.8655 17.9652C42.2051 18.8551 42.8291 19.608 43.6404 20.107C44.5779 20.6236 45.6393 20.8727 46.7088 20.8271C47.5851 20.8485 48.4555 20.6779 49.2588 20.3272C49.9554 20.0232 50.5404 19.5103 50.9329 18.8595C51.3455 18.1375 51.5488 17.3148 51.52 16.4837H55.7487C55.8054 18.0423 55.3984 19.5826 54.5791 20.9097C53.7998 22.0906 52.6803 23.0071 51.3686 23.5377C49.8771 24.1389 48.2799 24.4337 46.6721 24.4046Z" fill="white"/>
<path d="M62.9036 24.4046C62.3562 24.4004 61.8106 24.3404 61.2754 24.2257C60.7006 24.1112 60.1499 23.8986 59.6472 23.5973C59.1203 23.277 58.6894 22.8207 58.3997 22.2764C58.0523 21.5912 57.8849 20.8289 57.9135 20.0612C57.878 19.1195 58.1239 18.1886 58.6198 17.3873C59.1198 16.6569 59.8163 16.0829 60.6287 15.7316C61.6211 15.2947 62.6743 15.0116 63.7521 14.8922C65.0865 14.7292 66.43 14.651 67.7744 14.6583V13.5117C67.7833 13.1093 67.7083 12.7094 67.5542 12.3376C67.3962 11.995 67.126 11.7167 66.7883 11.5487C66.3168 11.329 65.7988 11.2283 65.2793 11.2552C64.7451 11.2375 64.2121 11.3168 63.7062 11.4891C63.3696 11.5999 63.074 11.8092 62.8577 12.0899C62.6931 12.3269 62.6051 12.6086 62.6054 12.8971V13.2503H58.6427C58.6249 13.1581 58.6157 13.0644 58.6152 12.9705V12.6311C58.5991 11.7809 58.8906 10.9535 59.4362 10.3012C60.0588 9.59629 60.8608 9.07326 61.7569 8.78766C62.8832 8.413 64.0651 8.23308 65.2518 8.25563C66.4741 8.22121 67.6925 8.40925 68.8476 8.81059C69.7439 9.12359 70.5253 9.69888 71.0904 10.4617C71.6354 11.273 71.9069 12.2371 71.8655 13.2136V20.2309C71.8524 20.3755 71.8738 20.5212 71.9281 20.656C71.9823 20.7908 72.0677 20.9107 72.1774 21.006C72.3683 21.171 72.613 21.2607 72.8653 21.2582H73.8423V23.9276C73.5473 24.0597 73.24 24.1626 72.925 24.2349C72.434 24.3522 71.9299 24.4061 71.4252 24.3954C70.9114 24.404 70.4003 24.3201 69.9163 24.1477C69.5004 23.9991 69.1239 23.7575 68.8155 23.4414C68.5188 23.1332 68.3057 22.7543 68.1963 22.3406H67.9945C67.6424 22.753 67.2276 23.1074 66.7654 23.3909C66.2496 23.7224 65.6846 23.9701 65.0913 24.1248C64.3783 24.3177 63.6422 24.4118 62.9036 24.4046ZM64.2795 21.3225C64.7802 21.3317 65.2782 21.2461 65.7472 21.0702C66.1516 20.9218 66.5215 20.6924 66.8342 20.396C67.1351 20.102 67.3697 19.747 67.5221 19.3549C67.6923 18.9354 67.778 18.4866 67.7744 18.034V17.1809C66.7915 17.172 65.8096 17.2456 64.839 17.401C64.1115 17.4977 63.4144 17.7546 62.7981 18.1532C62.5585 18.3136 62.364 18.5327 62.2331 18.7897C62.1022 19.0466 62.0393 19.3328 62.0505 19.6209C62.0403 19.9464 62.1317 20.267 62.3119 20.5382C62.509 20.7955 62.7767 20.99 63.0824 21.0977C63.4643 21.2508 63.8727 21.3272 64.2841 21.3225H64.2795Z" fill="white"/>
<path d="M75.8511 24.0514V2.82985H79.9285V24.0514H75.8511Z" fill="white"/>
<path d="M83.6894 24.0514V2.82985H87.7668V24.0514H83.6894Z" fill="white"/>
<path d="M98.5403 24.4046C97.063 24.4519 95.5949 24.1551 94.252 23.5377C93.1094 22.9695 92.1905 22.0345 91.6423 20.8822C91.0069 19.4522 90.7057 17.8962 90.7617 16.3324C90.703 14.7639 91.0042 13.2028 91.6423 11.7689C92.1898 10.6241 93.1032 9.69448 94.2382 9.12706C95.5557 8.51071 96.9994 8.21222 98.4532 8.25563C99.8218 8.21375 101.181 8.49996 102.416 9.09036C103.493 9.65485 104.351 10.5639 104.851 11.6725C105.448 13.0982 105.728 14.6365 105.672 16.181V17.2359H94.8987C94.916 18.0184 95.0601 18.7928 95.3252 19.5291C95.5372 20.1063 95.9423 20.5925 96.4718 20.9051C97.1081 21.2397 97.8223 21.398 98.5403 21.3637C98.972 21.369 99.4019 21.3087 99.8154 21.1849C100.177 21.0792 100.513 20.8996 100.801 20.6574C101.079 20.4156 101.298 20.1147 101.444 19.7768C101.609 19.3981 101.69 18.9882 101.682 18.5752H105.672C105.694 19.4544 105.514 20.3268 105.145 21.1252C104.804 21.8346 104.302 22.4537 103.677 22.9323C103.005 23.4358 102.242 23.8048 101.43 24.0193C100.489 24.2785 99.5165 24.4081 98.5403 24.4046ZM94.94 14.6767H101.457C101.468 14.159 101.393 13.6431 101.237 13.1494C101.113 12.7597 100.908 12.4004 100.636 12.0945C100.385 11.8213 100.07 11.6148 99.7191 11.4937C99.3279 11.3604 98.9168 11.2953 98.5037 11.301C97.8617 11.2805 97.2234 11.4059 96.637 11.668C96.1438 11.905 95.7413 12.2962 95.4903 12.7825C95.1966 13.3765 95.0103 14.0178 94.94 14.6767Z" fill="white"/>
<path d="M108.667 24.0514V8.61337H112.043L112.369 11.0075H112.575C112.766 10.5161 113.024 10.0532 113.341 9.63157C113.652 9.21346 114.051 8.86896 114.51 8.62254C115.018 8.35688 115.584 8.22433 116.157 8.23728C116.466 8.2344 116.774 8.26983 117.074 8.34277C117.284 8.39223 117.491 8.45504 117.693 8.53082V12.2321H116.432C115.888 12.2217 115.347 12.3055 114.831 12.4798C114.385 12.6373 113.986 12.9055 113.671 13.2595C113.347 13.6323 113.111 14.0726 112.979 14.5483C112.826 15.1335 112.753 15.7368 112.763 16.3416V24.0514H108.667Z" fill="white"/>
<path d="M128.008 24.4046C126.884 24.4091 125.763 24.2907 124.665 24.0514C123.672 23.8465 122.723 23.4677 121.863 22.9323C121.076 22.4411 120.421 21.7657 119.955 20.9647C119.463 20.078 119.219 19.0751 119.248 18.0615V17.7542C119.244 17.6704 119.255 17.5866 119.28 17.5065H123.624C123.601 17.5825 123.591 17.6613 123.592 17.7404V18.0064C123.576 18.5773 123.757 19.1362 124.105 19.5888C124.502 20.0556 125.029 20.3927 125.619 20.5565C126.371 20.7853 127.154 20.8952 127.94 20.8822C128.445 20.8857 128.949 20.8504 129.448 20.7767C129.849 20.7208 130.243 20.6224 130.623 20.4831C130.93 20.3777 131.218 20.2228 131.476 20.0245C131.689 19.8626 131.861 19.6518 131.976 19.4099C132.085 19.1599 132.14 18.8893 132.136 18.6164C132.145 18.3786 132.104 18.1415 132.017 17.9198C131.931 17.6982 131.799 17.4966 131.632 17.3276C131.222 16.9559 130.744 16.6677 130.224 16.4792C129.565 16.2264 128.893 16.0105 128.21 15.8325L125.917 15.2316C125.136 15.0283 124.37 14.7724 123.624 14.4657C122.916 14.1824 122.246 13.8127 121.629 13.3649C121.038 12.9334 120.554 12.3716 120.216 11.723C119.853 10.9736 119.679 10.1472 119.707 9.3151C119.683 8.41327 119.902 7.52158 120.34 6.73292C120.772 5.99748 121.383 5.38244 122.115 4.9442C122.929 4.45049 123.821 4.09701 124.752 3.89849C125.822 3.66704 126.914 3.55476 128.008 3.56368C129.056 3.55769 130.1 3.67 131.123 3.89849C132.041 4.09828 132.915 4.46183 133.705 4.97172C134.425 5.43542 135.024 6.06439 135.452 6.80631C135.889 7.61674 136.106 8.52769 136.081 9.44811V9.80126H131.824V9.56736C131.839 9.07595 131.676 8.59577 131.366 8.21435C131.005 7.81248 130.547 7.51069 130.036 7.33834C129.395 7.11384 128.719 7.00513 128.04 7.01728C127.333 7.00395 126.627 7.08258 125.94 7.25119C125.447 7.36308 124.991 7.60181 124.619 7.94375C124.47 8.09064 124.353 8.26649 124.275 8.46042C124.197 8.65435 124.16 8.86223 124.165 9.07119C124.171 9.28014 124.22 9.48572 124.308 9.67521C124.396 9.86469 124.522 10.034 124.679 10.1728C125.097 10.5192 125.574 10.788 126.087 10.9662C126.744 11.2103 127.417 11.411 128.1 11.5671C128.843 11.7413 129.607 11.937 130.393 12.1541C131.171 12.367 131.936 12.6211 132.687 12.9155C133.398 13.1915 134.069 13.5617 134.682 14.0162C135.265 14.4509 135.745 15.0083 136.09 15.649C136.457 16.3566 136.64 17.1453 136.622 17.9422C136.686 19.2765 136.291 20.5926 135.503 21.671C134.712 22.6427 133.65 23.3578 132.453 23.7258C131.017 24.19 129.517 24.4192 128.008 24.4046Z" fill="#009999"/>
<path d="M139.75 29.2754V8.6363H143.098L143.451 10.7186H143.657C144.124 9.92162 144.819 9.28268 145.652 8.88397C146.614 8.4566 147.661 8.2578 148.713 8.30316C149.764 8.34852 150.79 8.6368 151.711 9.1454C152.691 9.77222 153.442 10.6988 153.853 11.7872C154.401 13.2601 154.657 14.8258 154.605 16.3966C154.654 17.94 154.394 19.4776 153.839 20.9188C153.42 22.0021 152.677 22.9296 151.711 23.5744C150.756 24.165 149.651 24.4661 148.528 24.4412C147.91 24.4454 147.293 24.3715 146.694 24.2211C146.147 24.085 145.629 23.8503 145.166 23.5285C144.719 23.2199 144.33 22.833 144.02 22.3865H143.845V29.3121L139.75 29.2754ZM147.12 21.0564C147.801 21.0994 148.479 20.9398 149.069 20.5978C149.574 20.2414 149.943 19.7238 150.115 19.1301C150.346 18.3442 150.454 17.5274 150.436 16.7085V16.0067C150.455 15.1787 150.347 14.3527 150.115 13.5576C149.944 12.9632 149.575 12.4453 149.069 12.0899C148.482 11.7383 147.804 11.5691 147.12 11.6037C146.453 11.5763 145.794 11.7627 145.24 12.1358C144.727 12.5176 144.347 13.05 144.153 13.6585C143.903 14.4361 143.786 15.2499 143.804 16.0664V16.5663C143.796 17.1928 143.864 17.8181 144.006 18.4284C144.121 18.9362 144.326 19.4193 144.611 19.8548C144.861 20.244 145.209 20.5604 145.62 20.7721C146.091 20.9819 146.605 21.0792 147.12 21.0564Z" fill="#009999"/>
<path d="M164.7 24.4046C163.225 24.4477 161.759 24.1511 160.416 23.5377C159.253 22.97 158.312 22.0308 157.742 20.8684C157.088 19.4482 156.774 17.8951 156.825 16.3324C156.768 14.7603 157.082 13.1968 157.742 11.7689C158.317 10.617 159.258 9.68797 160.416 9.12705C161.78 8.55487 163.244 8.26018 164.723 8.26018C166.202 8.26018 167.666 8.55487 169.03 9.12705C170.182 9.6904 171.116 10.6193 171.685 11.7689C172.351 13.203 172.666 14.7753 172.602 16.3553C172.656 17.9182 172.341 19.4719 171.685 20.8913C171.121 22.0514 170.187 22.9905 169.03 23.5606C167.671 24.1713 166.189 24.4601 164.7 24.4046ZM164.7 21.2353C165.452 21.2688 166.199 21.0959 166.86 20.7354C167.417 20.3744 167.835 19.8363 168.048 19.2081C168.321 18.3959 168.45 17.5422 168.429 16.6855V15.9792C168.45 15.1226 168.321 14.2688 168.048 13.4567C167.834 12.828 167.416 12.2888 166.86 11.9248C166.203 11.5524 165.454 11.3742 164.7 11.4111C163.956 11.3761 163.218 11.5543 162.572 11.9248C162.013 12.2898 161.595 12.8329 161.384 13.4658C161.111 14.278 160.982 15.1318 161.003 15.9884V16.6947C160.982 17.5513 161.111 18.4051 161.384 19.2173C161.595 19.8463 162.014 20.3849 162.572 20.7446C163.223 21.1006 163.959 21.2704 164.7 21.2353Z" fill="#009999"/>
<path d="M180.198 24.4046C179.373 24.4388 178.554 24.257 177.822 23.8771C177.246 23.559 176.784 23.0681 176.501 22.4737C176.22 21.8513 176.079 21.175 176.088 20.4923V11.778H174.18V8.61337H176.235L177.001 4.21037H180.17V8.61337H183V11.7505H180.184V19.7952C180.157 20.18 180.271 20.5616 180.505 20.8684C180.646 21.0005 180.813 21.1014 180.996 21.1647C181.178 21.2279 181.372 21.2519 181.564 21.2353H183V23.9321C182.731 24.0217 182.457 24.0952 182.179 24.1523C181.867 24.2211 181.532 24.2807 181.184 24.3312C180.857 24.3768 180.528 24.4013 180.198 24.4046Z" fill="#009999"/>
<path d="M28.8353 31.3301C25.7322 32.1592 22.4894 32.3271 19.3172 31.8231C16.145 31.319 13.114 30.1541 10.4207 28.4039L14.2733 24.5559C15.5551 25.2807 16.9236 25.8401 18.3461 26.2208L21.6667 22.9002C21.997 22.57 22.4449 22.3845 22.9119 22.3845C23.379 22.3845 23.8269 22.57 24.1571 22.9002L29.638 28.3764C29.8569 28.5964 30.0141 28.8701 30.0935 29.1701C30.173 29.4702 30.172 29.7858 30.0906 30.0853C30.0092 30.3848 29.8504 30.6576 29.63 30.8761C29.4096 31.0946 29.1355 31.2512 28.8353 31.3301Z" fill="white"/>
<path d="M9.20529 10.4388L5.88928 13.7594C5.88668 13.7792 5.88668 13.7992 5.88928 13.819L1.74771 17.9743C-0.182923 13.3128 -0.524633 8.14527 0.775376 3.27015C0.854243 2.96997 1.01083 2.69589 1.22937 2.47551C1.4479 2.25513 1.72066 2.09625 2.02016 2.01486C2.31966 1.93347 2.63532 1.93246 2.93533 2.01193C3.23535 2.0914 3.50912 2.24854 3.72906 2.46752L9.20529 7.94375C9.53578 8.27481 9.72139 8.72348 9.72139 9.19126C9.72139 9.65905 9.53578 10.1077 9.20529 10.4388Z" fill="#009999"/>
<path d="M14.2733 24.5559L10.4207 28.4039C6.54797 25.8772 3.52578 22.2429 1.74771 17.9743L5.90763 13.8144C6.52229 16.0692 7.5782 18.1796 9.0142 20.0234C10.4502 21.8672 12.2378 23.4078 14.2733 24.5559Z" fill="#39C1C1"/>
<path d="M15.8465 4.25623C17.0218 4.25623 17.9746 3.30344 17.9746 2.12812C17.9746 0.95279 17.0218 0 15.8465 0C14.6712 0 13.7184 0.95279 13.7184 2.12812C13.7184 3.30344 14.6712 4.25623 15.8465 4.25623Z" fill="white"/>
<path d="M22.9417 4.25623C24.1171 4.25623 25.0699 3.30344 25.0699 2.12812C25.0699 0.95279 24.1171 0 22.9417 0C21.7664 0 20.8136 0.95279 20.8136 2.12812C20.8136 3.30344 21.7664 4.25623 22.9417 4.25623Z" fill="#009999"/>
<path d="M30.037 4.25623C31.2123 4.25623 32.1651 3.30344 32.1651 2.12812C32.1651 0.95279 31.2123 0 30.037 0C28.8617 0 27.9089 0.95279 27.9089 2.12812C27.9089 3.30344 28.8617 4.25623 30.037 4.25623Z" fill="white"/>
<path d="M15.8465 11.3515C17.0218 11.3515 17.9746 10.3987 17.9746 9.22337C17.9746 8.04804 17.0218 7.09525 15.8465 7.09525C14.6712 7.09525 13.7184 8.04804 13.7184 9.22337C13.7184 10.3987 14.6712 11.3515 15.8465 11.3515Z" fill="#009999"/>
<path d="M22.9417 11.3515C24.1171 11.3515 25.0699 10.3987 25.0699 9.22337C25.0699 8.04804 24.1171 7.09525 22.9417 7.09525C21.7664 7.09525 20.8136 8.04804 20.8136 9.22337C20.8136 10.3987 21.7664 11.3515 22.9417 11.3515Z" fill="white"/>
<path d="M30.037 11.3515C31.2123 11.3515 32.1651 10.3987 32.1651 9.22337C32.1651 8.04804 31.2123 7.09525 30.037 7.09525C28.8617 7.09525 27.9089 8.04804 27.9089 9.22337C27.9089 10.3987 28.8617 11.3515 30.037 11.3515Z" fill="#009999"/>
<path d="M15.8465 18.4467C17.0218 18.4467 17.9746 17.494 17.9746 16.3186C17.9746 15.1433 17.0218 14.1905 15.8465 14.1905C14.6712 14.1905 13.7184 15.1433 13.7184 16.3186C13.7184 17.494 14.6712 18.4467 15.8465 18.4467Z" fill="white"/>
<path d="M22.9417 18.4467C24.1171 18.4467 25.0699 17.494 25.0699 16.3186C25.0699 15.1433 24.1171 14.1905 22.9417 14.1905C21.7664 14.1905 20.8136 15.1433 20.8136 16.3186C20.8136 17.494 21.7664 18.4467 22.9417 18.4467Z" fill="#009999"/>
<path d="M30.037 18.4467C31.2123 18.4467 32.1651 17.494 32.1651 16.3186C32.1651 15.1433 31.2123 14.1905 30.037 14.1905C28.8617 14.1905 27.9089 15.1433 27.9089 16.3186C27.9089 17.494 28.8617 18.4467 30.037 18.4467Z" fill="white"/>
</svg>
