<svg width="20" height="20" viewBox="0 0 20 20" fill="none" xmlns="http://www.w3.org/2000/svg">
<path d="M14.5001 1.66667H5.41675C4.16675 1.66667 3.16675 2.66667 3.16675 3.91667V16.9167C3.16675 17.4167 3.50008 17.9167 4.00008 18.1667C4.50008 18.4167 5.00008 18.3333 5.41675 18L9.66675 14.25C9.83341 14.0833 10.1667 14.0833 10.3334 14.25L14.5834 18C15.0001 18.3333 15.5001 18.4167 16.0001 18.25C16.5001 18 16.8334 17.5833 16.8334 17V3.91667C16.8334 2.66667 15.8334 1.66667 14.5001 1.66667C14.5834 1.66667 14.5834 1.66667 14.5001 1.66667ZM16.0001 17C16.0001 17.25 15.9167 17.4167 15.6667 17.5C15.5001 17.5833 15.2501 17.5833 15.1667 17.4167L10.8334 13.6667C10.3334 13.25 9.58341 13.25 9.08341 13.6667L4.83341 17.4167C4.66675 17.5 4.50008 17.5833 4.33341 17.5C4.16675 17.4167 4.00008 17.25 4.00008 17V3.91667C4.00008 3.08334 4.58341 2.41667 5.41675 2.41667H14.5001C15.3334 2.41667 15.9167 3.08334 15.9167 3.91667V17H16.0001Z" fill="#666666"/>
</svg>
