<svg width="20" height="20" viewBox="0 0 20 20" fill="none" xmlns="http://www.w3.org/2000/svg">
<path d="M17.8334 11.8333L16.3334 10.6667C16.3334 10.5 16.3334 10.25 16.3334 9.99999C16.3334 9.74999 16.3334 9.58332 16.3334 9.33332L17.8334 8.16666C18.0834 7.91666 18.1667 7.58332 18 7.24999L16.4167 4.49999C16.25 4.16666 15.8334 3.99999 15.5 4.16666L13.6667 4.91666C13.3334 4.66666 12.9167 4.41666 12.5834 4.24999L12.3334 2.33332C12.25 1.91666 12 1.66666 11.5834 1.66666H8.41671C8.00004 1.66666 7.75004 1.91666 7.66671 2.33332L7.41671 4.24999C7.00004 4.41666 6.66671 4.58332 6.33337 4.83332L4.50004 4.16666C4.16671 3.99999 3.75004 4.16666 3.58337 4.41666L2.00004 7.24999C1.83337 7.49999 1.91671 7.91666 2.16671 8.16666L3.66671 9.33332C3.66671 9.58332 3.66671 9.74999 3.66671 9.99999C3.66671 10.1667 3.66671 10.4167 3.66671 10.6667L2.16671 11.8333C1.91671 12.0833 1.83337 12.4167 2.00004 12.75L3.58337 15.5C3.75004 15.8333 4.16671 16 4.50004 15.8333L6.33337 15.0833C6.66671 15.3333 7.08337 15.5833 7.41671 15.75L7.66671 17.6667C7.75004 18 8.00004 18.3333 8.41671 18.3333H11.5834C11.9167 18.3333 12.25 18.0833 12.3334 17.6667L12.5834 15.75C12.9167 15.5833 13.3334 15.4167 13.6667 15.0833L15.5 15.8333C15.8334 16 16.25 15.8333 16.4167 15.5L18 12.75C18.1667 12.4167 18.0834 12.0833 17.8334 11.8333ZM17.4167 12.4167L15.75 15.1667L13.75 14.3333C13.6667 14.25 13.5 14.3333 13.4167 14.4167C13 14.75 12.5834 15 12.1667 15.1667C12.0834 15.25 12 15.3333 11.9167 15.4167L11.5834 17.5833H8.33337L8.00004 15.5C8.00004 15.4167 7.91671 15.25 7.75004 15.25C7.33337 15.0833 6.91671 14.8333 6.50004 14.5C6.41671 14.4167 6.33337 14.4167 6.25004 14.4167C6.16671 14.4167 6.16671 14.4167 6.08337 14.4167L4.16671 15.1667L2.58337 12.4167V12.3333L4.25004 11C4.33337 10.9167 4.41671 10.8333 4.41671 10.6667C4.41671 10.4167 4.33337 10.1667 4.33337 9.91666C4.33337 9.66666 4.33337 9.49999 4.41671 9.16666C4.41671 9.08332 4.41671 8.91666 4.25004 8.83332L2.58337 7.41666L4.25004 4.66666L6.25004 5.49999C6.33337 5.58332 6.50004 5.49999 6.58337 5.41666C7.00004 5.08332 7.41671 4.83332 7.83337 4.66666C7.91671 4.58332 8.00004 4.49999 8.08337 4.41666L8.41671 2.24999H11.6667L12 4.33332C12 4.41666 12.0834 4.58332 12.25 4.58332C12.6667 4.74999 13.0834 4.99999 13.5 5.33332C13.5834 5.41666 13.75 5.41666 13.8334 5.41666L15.8334 4.83332L17.4167 7.58332V7.66666L15.75 8.99999C15.6667 9.08332 15.5834 9.16666 15.5834 9.33332C15.5834 9.58332 15.6667 9.83332 15.6667 10.0833C15.6667 10.3333 15.6667 10.5833 15.5834 10.8333C15.5834 10.9167 15.5834 11.0833 15.75 11.1667L17.4167 12.4167Z" fill="#666666"/>
<path d="M10 6.5C8.08333 6.5 6.5 8.08333 6.5 10C6.5 11.9167 8.08333 13.5 10 13.5C11.9167 13.5 13.5 11.9167 13.5 10C13.5 8.08333 11.9167 6.5 10 6.5ZM10 12.75C8.5 12.75 7.25 11.5 7.25 10C7.25 8.5 8.5 7.25 10 7.25C11.5 7.25 12.75 8.5 12.75 10C12.75 11.5 11.5 12.75 10 12.75Z" fill="#666666"/>
</svg>
