<svg width="28" height="28" viewBox="0 0 28 28" fill="none" xmlns="http://www.w3.org/2000/svg">
<g clip-path="url(#clip0_115_145)">
<path d="M8.00625 8.54766C7.86953 8.54766 7.72734 8.49297 7.62344 8.38906L6.46953 7.23516C6.25625 7.02187 6.25625 6.67734 6.46953 6.46406C6.68281 6.25078 7.02734 6.25078 7.24062 6.46406L8.39453 7.61797C8.60781 7.83125 8.60781 8.17578 8.39453 8.38906C8.28516 8.49297 8.14297 8.54766 8.00625 8.54766Z" fill="#4A9A0B"/>
<path d="M5.50161 14.5469H3.86645C3.56567 14.5469 3.31958 14.3008 3.31958 14C3.31958 13.6992 3.56567 13.4531 3.86645 13.4531H5.50161C5.80239 13.4531 6.04849 13.6992 6.04849 14C6.04849 14.3008 5.80239 14.5469 5.50161 14.5469Z" fill="#4A9A0B"/>
<path d="M24.1337 14.5469H22.4985C22.1978 14.5469 21.9517 14.3008 21.9517 14C21.9517 13.6992 22.1978 13.4531 22.4985 13.4531H24.1337C24.4345 13.4531 24.6806 13.6992 24.6806 14C24.6806 14.3008 24.4345 14.5469 24.1337 14.5469Z" fill="#4A9A0B"/>
<path d="M6.84697 21.6945C6.71025 21.6945 6.56807 21.6398 6.46416 21.5359C6.25088 21.3227 6.25088 20.9781 6.46416 20.7648L7.61807 19.6109C7.83135 19.3977 8.17588 19.3977 8.38916 19.6109C8.60244 19.8242 8.60244 20.1687 8.38916 20.382L7.23525 21.5359C7.12588 21.6453 6.98916 21.6945 6.84697 21.6945Z" fill="#4A9A0B"/>
<path d="M19.9939 8.54766C19.8572 8.54766 19.715 8.49297 19.6111 8.38906C19.3979 8.17578 19.3979 7.83125 19.6111 7.61797L20.765 6.46406C20.9783 6.25078 21.3229 6.25078 21.5361 6.46406C21.7494 6.67734 21.7494 7.02187 21.5361 7.23516L20.3822 8.38906C20.2729 8.49297 20.1361 8.54766 19.9939 8.54766Z" fill="#4A9A0B"/>
<path d="M17.4673 18.0086C17.3306 18.0086 17.1884 17.9539 17.0845 17.85L13.6173 14.3828C13.5134 14.2789 13.4587 14.1422 13.4587 14V9.1C13.4587 8.79922 13.7048 8.55312 14.0056 8.55312C14.3064 8.55312 14.5525 8.79922 14.5525 9.1V13.7758L17.8556 17.0789C18.0689 17.2922 18.0689 17.6367 17.8556 17.85C17.7462 17.9539 17.6041 18.0086 17.4673 18.0086Z" fill="#4A9A0B"/>
<path d="M14 6.04844C13.6992 6.04844 13.4531 5.80235 13.4531 5.50157V3.86641C13.4531 3.56563 13.6992 3.31953 14 3.31953C14.3008 3.31953 14.5469 3.56563 14.5469 3.86641V5.50157C14.5469 5.80235 14.3008 6.04844 14 6.04844Z" fill="#4A9A0B"/>
<path d="M14 24.675C13.6992 24.675 13.4531 24.4289 13.4531 24.1281V22.493C13.4531 22.1922 13.6992 21.9461 14 21.9461C14.3008 21.9461 14.5469 22.1922 14.5469 22.493V24.1281C14.5469 24.4344 14.3008 24.675 14 24.675Z" fill="#4A9A0B"/>
<path d="M21.1532 21.6945C21.0165 21.6945 20.8743 21.6398 20.7704 21.5359L19.6165 20.382C19.4032 20.1687 19.4032 19.8242 19.6165 19.6109C19.8298 19.3977 20.1743 19.3977 20.3876 19.6109L21.5415 20.7648C21.7548 20.9781 21.7548 21.3227 21.5415 21.5359C21.4321 21.6453 21.2899 21.6945 21.1532 21.6945Z" fill="#4A9A0B"/>
<mask id="mask0_115_145" style="mask-type:luminance" maskUnits="userSpaceOnUse" x="0" y="0" width="38" height="38">
<path d="M37.2604 37.2604H0.072998V0.0730286H37.2604V37.2604Z" fill="white"/>
</mask>
<g mask="url(#mask0_115_145)">
<path d="M13.9999 24.675C8.11556 24.675 3.32495 19.8844 3.32495 14.0001C3.32495 8.11571 8.11556 3.3251 13.9999 3.3251C19.8843 3.3251 24.6749 8.11571 24.6749 14.0001C24.6749 19.8844 19.8843 24.675 13.9999 24.675ZM13.9999 4.41156C8.71348 4.41156 4.41141 8.71363 4.41141 14.0001C4.41141 19.2865 8.71348 23.5886 13.9999 23.5886C19.2864 23.5886 23.5884 19.2865 23.5884 14.0001C23.5884 8.71363 19.2864 4.41156 13.9999 4.41156Z" fill="#4A9A0B"/>
<path d="M24.0259 23.4792C24.0259 23.7782 23.7853 24.0261 23.479 24.0261C23.18 24.0261 22.9321 23.7855 22.9321 23.4792C22.9321 23.173 23.1728 22.9323 23.479 22.9323C23.778 22.9323 24.0259 23.1803 24.0259 23.4792Z" fill="#4A9A0B"/>
<path d="M13.9999 27.9417C10.2739 27.9417 6.76663 26.4907 4.13435 23.8584C1.50206 21.2261 0.0510254 17.7261 0.0510254 13.9928C0.0510254 10.2668 1.50206 6.75948 4.13435 4.12719C6.76663 1.49491 10.2666 0.043869 13.9999 0.043869C17.726 0.043869 21.2333 1.49491 23.8655 4.12719C26.4978 6.75948 27.9489 10.2595 27.9489 13.9928C27.9489 16.8365 27.103 19.5709 25.4989 21.8969C25.3312 22.1449 24.9885 22.2105 24.7405 22.0355C24.4926 21.8678 24.427 21.5251 24.602 21.2771C26.0822 19.1334 26.8624 16.6105 26.8624 13.9928C26.8624 6.90531 21.0947 1.13762 14.0072 1.13762C6.91976 1.13762 1.15206 6.90531 1.15206 13.9928C1.15206 21.0803 6.91976 26.848 14.0072 26.848C16.6249 26.848 19.1479 26.0678 21.2916 24.5876C21.5395 24.4198 21.8749 24.4782 22.0499 24.7261C22.2176 24.974 22.1593 25.3167 21.9114 25.4844C19.5781 27.0959 16.8437 27.9417 13.9999 27.9417Z" fill="#4A9A0B"/>
</g>
</g>
<defs>
<clipPath id="clip0_115_145">
<rect width="28" height="28" fill="white"/>
</clipPath>
</defs>
</svg>
