<svg width="20" height="20" viewBox="0 0 20 20" fill="none" xmlns="http://www.w3.org/2000/svg">
<path d="M10.0001 1.66666C5.41675 1.66666 1.66675 5.74999 1.66675 10.75V14.5C1.66675 14.75 1.83341 14.9167 2.08341 14.9167C2.33341 14.9167 2.50008 14.75 2.50008 14.5V10.75C2.50008 6.16666 5.91675 2.41666 10.0834 2.41666C14.2501 2.41666 17.6667 6.16666 17.6667 10.75V14.5C17.6667 14.75 17.8334 14.9167 18.0834 14.9167C18.3334 14.9167 18.5001 14.75 18.5001 14.5V10.75C18.3334 5.74999 14.5834 1.66666 10.0001 1.66666ZM5.83341 10.75H4.66675C3.83341 10.75 3.16675 11.4167 3.16675 12.25V16.8333C3.16675 17.6667 3.83341 18.3333 4.66675 18.3333H5.83341C6.08341 18.3333 6.25008 18.1667 6.25008 17.9167V11.0833C6.25008 10.9167 6.08341 10.75 5.83341 10.75ZM5.41675 17.5833H4.66675C4.25008 17.5833 3.91675 17.25 3.91675 16.8333V12.25C3.91675 11.8333 4.25008 11.5 4.66675 11.5H5.41675V17.5833ZM15.3334 10.75H14.1667C13.9167 10.75 13.7501 10.9167 13.7501 11.1667V18C13.7501 18.25 13.9167 18.4167 14.1667 18.4167H15.3334C16.1667 18.4167 16.8334 17.75 16.8334 16.9167V12.3333C16.8334 11.4167 16.1667 10.75 15.3334 10.75ZM16.0834 16.8333C16.0834 17.25 15.7501 17.5833 15.3334 17.5833H14.5834V11.5H15.3334C15.7501 11.5 16.0834 11.8333 16.0834 12.25V16.8333Z" fill="#666666"/>
</svg>
