<svg width="18" height="18" viewBox="0 0 18 18" fill="none" xmlns="http://www.w3.org/2000/svg">
<path d="M14.625 4.125V7.875M16.5 6H12.75M8.0625 2.25C8.80842 2.25 9.52379 2.54632 10.0512 3.07376C10.5787 3.60121 10.875 4.31658 10.875 5.0625V6.9375C10.875 7.68342 10.5787 8.39879 10.0512 8.92624C9.52379 9.45368 8.80842 9.75 8.0625 9.75C7.31658 9.75 6.60121 9.45368 6.07376 8.92624C5.54632 8.39879 5.25 7.68342 5.25 6.9375V5.0625C5.25 4.31658 5.54632 3.60121 6.07376 3.07376C6.60121 2.54632 7.31658 2.25 8.0625 2.25Z" stroke="#00435F" stroke-width="1.4" stroke-linecap="round" stroke-linejoin="round"/>
<path fill-rule="evenodd" clip-rule="evenodd" d="M14.625 15.375V14.6925C14.625 11.7047 11.1694 9.75 8.0625 9.75C4.95563 9.75 1.5 11.7047 1.5 14.6925V15.375C1.5 15.6236 1.59877 15.8621 1.77459 16.0379C1.9504 16.2137 2.18886 16.3125 2.4375 16.3125H13.6875C13.9361 16.3125 14.1746 16.2137 14.3504 16.0379C14.5262 15.8621 14.625 15.6236 14.625 15.375Z" stroke="#00435F" stroke-width="1.4" stroke-linecap="round" stroke-linejoin="round"/>
</svg>
