<svg width="16" height="16" viewBox="0 0 16 16" fill="none" xmlns="http://www.w3.org/2000/svg">
<path d="M11.7238 9.30281L9.11919 13.466C9.01825 13.6306 8.87641 13.7662 8.70749 13.8596C8.53857 13.9531 8.34833 14.0012 8.15529 13.9993C8.00326 14.0047 7.85168 13.9797 7.70949 13.9256C7.5673 13.8715 7.43741 13.7895 7.32747 13.6843C7.21754 13.5791 7.1298 13.453 7.06944 13.3134C7.00908 13.1737 6.97732 13.0234 6.97605 12.8713L6.97605 9.8873L2.47443 9.8873C2.30809 9.88191 2.14478 9.84136 1.99523 9.76834C1.84568 9.69532 1.71328 9.59146 1.60674 9.46361C1.50019 9.33576 1.42192 9.1868 1.37706 9.02654C1.3322 8.86627 1.32177 8.69832 1.34646 8.53374L2.16681 3.24254C2.2018 2.95977 2.33886 2.69951 2.55224 2.51068C2.76561 2.32185 3.04061 2.21746 3.32554 2.21711L10.0523 2.21711C10.3726 2.21586 10.6886 2.28961 10.9752 2.43245L11.7135 2.80161M11.7238 9.30281L11.7238 2.83237H14.154C14.29 2.83237 14.4204 2.88639 14.5166 2.98254C14.6127 3.07869 14.6667 3.2091 14.6667 3.34508L14.6667 8.79009C14.6667 8.92607 14.6127 9.05648 14.5166 9.15264C14.4204 9.24879 14.29 9.30281 14.154 9.30281H11.7238Z" stroke="#666666" stroke-linecap="round" stroke-linejoin="round"/>
</svg>
