<svg width="20" height="20" viewBox="0 0 20 20" fill="none" xmlns="http://www.w3.org/2000/svg">
<g clip-path="url(#clip0_54_4262)">
<path d="M17.8951 9.47263H20.0003C20.0003 4.07263 15.9235 0 10.5161 0V2.10526C14.7919 2.10526 17.8951 5.20316 17.8951 9.47263Z" fill="#009999"/>
<path d="M10.5266 6.31578C12.7403 6.31578 13.6845 7.25999 13.6845 9.47368H15.7898C15.7898 6.07894 13.9214 4.21052 10.5266 4.21052V6.31578ZM14.1287 12.0453C13.9265 11.8614 13.6607 11.7634 13.3875 11.7718C13.1143 11.7803 12.855 11.8945 12.6645 12.0905L10.1456 14.681C9.53925 14.5653 8.3203 14.1853 7.06556 12.9337C5.81082 11.6779 5.43082 10.4558 5.31819 9.85368L7.90661 7.33367C8.10284 7.14328 8.21728 6.88401 8.22573 6.61073C8.23418 6.33746 8.13597 6.07161 7.95188 5.86946L4.0624 1.59262C3.87824 1.38984 3.62228 1.26683 3.34888 1.24974C3.07548 1.23264 2.80619 1.32279 2.59819 1.50104L0.313981 3.45999C0.131993 3.64264 0.02337 3.88573 0.00871786 4.14315C-0.00707162 4.4063 -0.308124 10.64 4.52556 15.4758C8.7424 19.6916 14.0245 20 15.4792 20C15.6919 20 15.8224 19.9937 15.8571 19.9916C16.1145 19.9772 16.3575 19.8681 16.5392 19.6853L18.4971 17.4C18.6755 17.1921 18.7659 16.9229 18.749 16.6495C18.7321 16.3761 18.6092 16.1201 18.4066 15.9358L14.1287 12.0453Z" fill="#009999"/>
</g>
<defs>
<clipPath id="clip0_54_4262">
<rect width="20" height="20" fill="white"/>
</clipPath>
</defs>
</svg>
