<svg width="20" height="20" viewBox="0 0 20 20" fill="none" xmlns="http://www.w3.org/2000/svg">
<path d="M14.6667 17.8334H4.5C3.08333 17.8334 2 16.6668 2 15.3334V14.7501C2 12.3334 4 10.3334 6.41667 10.3334H12.6667C15.0833 10.3334 17.0833 12.3334 17.0833 14.7501V15.3334C17.1667 16.6668 16 17.8334 14.6667 17.8334ZM6.41667 11.0834C4.41667 11.0834 2.75 12.7501 2.75 14.7501V15.3334C2.75 16.2501 3.5 17.0834 4.5 17.0834H14.5833C15.5 17.0834 16.3333 16.3334 16.3333 15.3334V14.7501C16.3333 12.7501 14.6667 11.0834 12.6667 11.0834H6.41667ZM9.58333 9.16676C7.58333 9.16676 6 7.58343 6 5.58343C6 3.58343 7.58333 2.00009 9.58333 2.00009C11.5833 2.00009 13.1667 3.58343 13.1667 5.58343C13.1667 7.58343 11.5833 9.16676 9.58333 9.16676ZM9.58333 2.83342C8 2.83342 6.75 4.08343 6.75 5.58343C6.75 7.08343 8 8.41676 9.58333 8.41676C11.1667 8.41676 12.4167 7.16676 12.4167 5.58343C12.4167 4.00009 11.0833 2.83342 9.58333 2.83342Z" fill="#666666"/>
</svg>
